<?xml version="1.0" encoding="UTF-8"?>
<svg width="144px" height="50px" viewBox="0 0 144 50" version="1.1" xmlns="http://www.w3.org/2000/svg" xmlns:xlink="http://www.w3.org/1999/xlink">
    <title>矩形</title>
    <g id="页面-1" stroke="none" stroke-width="1" fill="none" fill-rule="evenodd">
        <g id="2560" transform="translate(-978.000000, -24824.000000)">
            <g id="编组-14" transform="translate(978.000000, 24811.000000)">
                <rect id="矩形" x="0" y="0" width="144" height="75"></rect>
                <path d="M21.42,60.9 L21.42,15.72 L14.82,15.72 L0,23.88 L0.06,32.1 L13.14,25.2 L13.14,60.9 L21.42,60.9 Z M46.18,61.86 C51.14,61.86 55.07,60.39 57.97,57.45 C60.87,54.51 62.32,50.3 62.32,44.82 L62.32,33.06 C62.32,29.34 61.65,26.12 60.31,23.4 C58.97,20.68 57.09,18.6 54.67,17.16 C52.25,15.72 49.42,15 46.18,15 C43.02,15 40.23,15.72 37.81,17.16 C35.39,18.6 33.52,20.68 32.2,23.4 C30.88,26.12 30.22,29.34 30.22,33.06 L30.22,44.82 C30.22,50.3 31.66,54.51 34.54,57.45 C37.42,60.39 41.3,61.86 46.18,61.86 Z M46.18,53.76 C43.62,53.76 41.71,52.88 40.45,51.12 C39.19,49.36 38.56,47.06 38.56,44.22 L38.56,32.7 C38.56,29.74 39.25,27.42 40.63,25.74 C42.01,24.06 43.86,23.22 46.18,23.22 C48.74,23.22 50.66,24.09 51.94,25.83 C53.22,27.57 53.86,29.86 53.86,32.7 L53.86,44.22 C53.86,47.1 53.23,49.41 51.97,51.15 C50.71,52.89 48.78,53.76 46.18,53.76 Z M83.8,61.86 C88.76,61.86 92.69,60.39 95.59,57.45 C98.49,54.51 99.94,50.3 99.94,44.82 L99.94,33.06 C99.94,29.34 99.27,26.12 97.93,23.4 C96.59,20.68 94.71,18.6 92.29,17.16 C89.87,15.72 87.04,15 83.8,15 C80.64,15 77.85,15.72 75.43,17.16 C73.01,18.6 71.14,20.68 69.82,23.4 C68.5,26.12 67.84,29.34 67.84,33.06 L67.84,44.82 C67.84,50.3 69.28,54.51 72.16,57.45 C75.04,60.39 78.92,61.86 83.8,61.86 Z M83.8,53.76 C81.24,53.76 79.33,52.88 78.07,51.12 C76.81,49.36 76.18,47.06 76.18,44.22 L76.18,32.7 C76.18,29.74 76.87,27.42 78.25,25.74 C79.63,24.06 81.48,23.22 83.8,23.22 C86.36,23.22 88.28,24.09 89.56,25.83 C90.84,27.57 91.48,29.86 91.48,32.7 L91.48,44.22 C91.48,47.1 90.85,49.41 89.59,51.15 C88.33,52.89 86.4,53.76 83.8,53.76 Z M114.836,47.576 C116.052,47.576 117.134667,47.32 118.084,46.808 C119.033333,46.296 119.774667,45.576 120.308,44.648 C120.841333,43.72 121.108,42.648 121.108,41.432 C121.108,40.2373333 120.836,39.1706667 120.292,38.232 C119.748,37.2933333 119.001333,36.5626667 118.052,36.04 C117.102667,35.5173333 116.030667,35.256 114.836,35.256 C113.662667,35.256 112.596,35.5226667 111.636,36.056 C110.676,36.5893333 109.918667,37.3253333 109.364,38.264 C108.809333,39.2026667 108.532,40.2586667 108.532,41.432 C108.532,42.6053333 108.804,43.656 109.348,44.584 C109.892,45.512 110.638667,46.2426667 111.588,46.776 C112.537333,47.3093333 113.62,47.576 114.836,47.576 Z M117.556,59.64 L132.756,35.448 L128.532,35.448 L113.364,59.64 L117.556,59.64 Z M114.836,44.312 C113.961333,44.312 113.246667,44.0506667 112.692,43.528 C112.137333,43.0053333 111.86,42.3173333 111.86,41.464 C111.86,40.6106667 112.142667,39.9013333 112.708,39.336 C113.273333,38.7706667 113.982667,38.488 114.836,38.488 C115.668,38.488 116.361333,38.7706667 116.916,39.336 C117.470667,39.9013333 117.748,40.6106667 117.748,41.464 C117.748,42.296 117.470667,42.9786667 116.916,43.512 C116.361333,44.0453333 115.668,44.312 114.836,44.312 Z M131.188,59.8 C132.382667,59.8 133.454667,59.544 134.404,59.032 C135.353333,58.52 136.1,57.8 136.644,56.872 C137.188,55.944 137.46,54.872 137.46,53.656 C137.46,52.4613333 137.188,51.3893333 136.644,50.44 C136.1,49.4906667 135.348,48.7546667 134.388,48.232 C133.428,47.7093333 132.361333,47.448 131.188,47.448 C129.993333,47.448 128.916,47.72 127.956,48.264 C126.996,48.808 126.244,49.5493333 125.7,50.488 C125.156,51.4266667 124.884,52.4826667 124.884,53.656 C124.884,54.808 125.156,55.8533333 125.7,56.792 C126.244,57.7306667 126.990667,58.4666667 127.94,59 C128.889333,59.5333333 129.972,59.8 131.188,59.8 Z M131.188,56.536 C130.313333,56.536 129.598667,56.2746667 129.044,55.752 C128.489333,55.2293333 128.212,54.5413333 128.212,53.688 C128.212,52.8346667 128.494667,52.1253333 129.06,51.56 C129.625333,50.9946667 130.334667,50.712 131.188,50.712 C132.02,50.712 132.708,50.9893333 133.252,51.544 C133.796,52.0986667 134.068,52.8133333 134.068,53.688 C134.068,54.52 133.796,55.2026667 133.252,55.736 C132.708,56.2693333 132.02,56.536 131.188,56.536 Z" id="100%" fill="#FFFFFF" fill-rule="nonzero"></path>
            </g>
        </g>
    </g>
</svg>