<?xml version="1.0" encoding="UTF-8"?>
<svg width="144px" height="50px" viewBox="0 0 144 50" version="1.1" xmlns="http://www.w3.org/2000/svg" xmlns:xlink="http://www.w3.org/1999/xlink">
    <title>矩形</title>
    <g id="页面-1" stroke="none" stroke-width="1" fill="none" fill-rule="evenodd">
        <g id="2560" transform="translate(-1411.000000, -24824.000000)">
            <g id="编组-14" transform="translate(978.000000, 24811.000000)">
                <path d="M484.16,60.9 L484.16,53.28 L466.46,53.28 L476.24,43.26 C478.44,41.02 480.19,38.77 481.49,36.51 C482.79,34.25 483.44,31.64 483.44,28.68 C483.44,26.16 482.79,23.86 481.49,21.78 C480.19,19.7 478.38,18.05 476.06,16.83 C473.74,15.61 471.1,15 468.14,15 C463.34,15 459.55,16.42 456.77,19.26 C453.99,22.1 452.4,26.04 452,31.08 L452,31.08 L460.34,31.08 C460.54,28.52 461.33,26.52 462.71,25.08 C464.09,23.64 465.9,22.92 468.14,22.92 C470.18,22.92 471.83,23.47 473.09,24.57 C474.35,25.67 474.98,27.16 474.98,29.04 C474.98,30.96 474.5,32.75 473.54,34.41 C472.58,36.07 471.1,37.92 469.1,39.96 L469.1,39.96 L452.24,57.18 L452.24,60.9 L484.16,60.9 Z M505.46,61.92 C508.5,61.92 511.23,61.26 513.65,59.94 C516.07,58.62 517.96,56.76 519.32,54.36 C520.68,51.96 521.36,49.2 521.36,46.08 C521.36,43.08 520.73,40.49 519.47,38.31 C518.21,36.13 516.51,34.48 514.37,33.36 C512.23,32.24 509.88,31.68 507.32,31.68 C505.6,31.68 504.05,31.87 502.67,32.25 C501.29,32.63 499.94,33.16 498.62,33.84 L498.62,33.84 L499.22,22.74 L518.72,22.74 L518.72,15.66 L491.54,15.66 L490.04,41.52 L497.12,41.7 C498.4,40.62 499.69,39.8 500.99,39.24 C502.29,38.68 503.7,38.4 505.22,38.4 C507.58,38.4 509.45,39.11 510.83,40.53 C512.21,41.95 512.9,43.84 512.9,46.2 C512.9,48.56 512.2,50.48 510.8,51.96 C509.4,53.44 507.56,54.18 505.28,54.18 C501.36,54.18 498.8,52.54 497.6,49.26 L497.6,49.26 L489.02,49.26 C489.94,53.34 491.82,56.47 494.66,58.65 C497.5,60.83 501.1,61.92 505.46,61.92 Z M536.076,47.576 C537.292,47.576 538.374667,47.32 539.324,46.808 C540.273333,46.296 541.014667,45.576 541.548,44.648 C542.081333,43.72 542.348,42.648 542.348,41.432 C542.348,40.2373333 542.076,39.1706667 541.532,38.232 C540.988,37.2933333 540.241333,36.5626667 539.292,36.04 C538.342667,35.5173333 537.270667,35.256 536.076,35.256 C534.902667,35.256 533.836,35.5226667 532.876,36.056 C531.916,36.5893333 531.158667,37.3253333 530.604,38.264 C530.049333,39.2026667 529.772,40.2586667 529.772,41.432 C529.772,42.6053333 530.044,43.656 530.588,44.584 C531.132,45.512 531.878667,46.2426667 532.828,46.776 C533.777333,47.3093333 534.86,47.576 536.076,47.576 Z M538.796,59.64 L553.996,35.448 L549.772,35.448 L534.604,59.64 L538.796,59.64 Z M536.076,44.312 C535.201333,44.312 534.486667,44.0506667 533.932,43.528 C533.377333,43.0053333 533.1,42.3173333 533.1,41.464 C533.1,40.6106667 533.382667,39.9013333 533.948,39.336 C534.513333,38.7706667 535.222667,38.488 536.076,38.488 C536.908,38.488 537.601333,38.7706667 538.156,39.336 C538.710667,39.9013333 538.988,40.6106667 538.988,41.464 C538.988,42.296 538.710667,42.9786667 538.156,43.512 C537.601333,44.0453333 536.908,44.312 536.076,44.312 Z M552.428,59.8 C553.622667,59.8 554.694667,59.544 555.644,59.032 C556.593333,58.52 557.34,57.8 557.884,56.872 C558.428,55.944 558.7,54.872 558.7,53.656 C558.7,52.4613333 558.428,51.3893333 557.884,50.44 C557.34,49.4906667 556.588,48.7546667 555.628,48.232 C554.668,47.7093333 553.601333,47.448 552.428,47.448 C551.233333,47.448 550.156,47.72 549.196,48.264 C548.236,48.808 547.484,49.5493333 546.94,50.488 C546.396,51.4266667 546.124,52.4826667 546.124,53.656 C546.124,54.808 546.396,55.8533333 546.94,56.792 C547.484,57.7306667 548.230667,58.4666667 549.18,59 C550.129333,59.5333333 551.212,59.8 552.428,59.8 Z M552.428,56.536 C551.553333,56.536 550.838667,56.2746667 550.284,55.752 C549.729333,55.2293333 549.452,54.5413333 549.452,53.688 C549.452,52.8346667 549.734667,52.1253333 550.3,51.56 C550.865333,50.9946667 551.574667,50.712 552.428,50.712 C553.26,50.712 553.948,50.9893333 554.492,51.544 C555.036,52.0986667 555.308,52.8133333 555.308,53.688 C555.308,54.52 555.036,55.2026667 554.492,55.736 C553.948,56.2693333 553.26,56.536 552.428,56.536 Z" id="25%" fill="#FFFFFF" fill-rule="nonzero"></path>
                <rect id="矩形" x="433" y="0" width="144" height="75"></rect>
            </g>
        </g>
    </g>
</svg>