<?xml version="1.0" encoding="UTF-8"?>
<svg width="46px" height="46px" viewBox="0 0 46 46" version="1.1" xmlns="http://www.w3.org/2000/svg" xmlns:xlink="http://www.w3.org/1999/xlink">
    <title>智能佩戴检测-md</title>
    <g id="页面-1" stroke="none" stroke-width="1" fill="none" fill-rule="evenodd">
        <g id="1920" transform="translate(-816.000000, -33499.000000)" stroke="#000000" stroke-width="2">
            <g id="更多惊喜" transform="translate(0.000000, 33062.000000)">
                <g id="智能佩戴检测" transform="translate(809.000000, 430.000000)">
                    <g transform="translate(7.000000, 7.000000)">
                        <circle id="椭圆形" cx="23" cy="23" r="22"></circle>
                        <path d="M14,22.5858684 C14.0257085,15.3728779 16.4311702,10.994102 21.2163848,9.44954061 C28.3942069,7.13269855 35.0891428,14.110773 32.387998,22.5858684 C31.3159261,25.3598728 29.9659583,25.5875178 28.9204828,29.7467118 C27.8750072,33.9059057 25.4506886,37.9091376 21.2163848,36.8181827 C16.9820811,35.7272278 16.1643405,31.1556737 18.6903627,28.9268302" id="路径-10"></path>
                        <path d="M28,20.4932328 C27.4103311,16.9825068 25.8989904,15.5290741 23.465978,16.1329347 C19.8164595,17.0387257 20.8361405,20.9660646 22.5786515,22.6714527 C23.7403256,23.8083782 23.6491599,25.5845606 22.3051544,28" id="路径-11"></path>
                    </g>
                </g>
            </g>
        </g>
    </g>
</svg>