<?xml version="1.0" encoding="UTF-8"?>
<svg width="144px" height="75px" viewBox="0 0 144 75" version="1.1" xmlns="http://www.w3.org/2000/svg" xmlns:xlink="http://www.w3.org/1999/xlink">
    <title>矩形</title>
    <g id="页面-1" stroke="none" stroke-width="1" fill="none" fill-rule="evenodd">
        <g id="1920" transform="translate(-1102.000000, -20991.000000)">
            <g id="deep-hd" transform="translate(0.000000, 19439.000000)">
                <g id="deep-hd超清-2" transform="translate(0.000000, 1080.000000)">
                    <g id="编组-14" transform="translate(669.000000, 472.000000)">
                        <path d="M465.16,59.9 L465.16,52.28 L447.46,52.28 L457.24,42.26 C459.44,40.02 461.19,37.77 462.49,35.51 C463.79,33.25 464.44,30.64 464.44,27.68 C464.44,25.16 463.79,22.86 462.49,20.78 C461.19,18.7 459.38,17.05 457.06,15.83 C454.74,14.61 452.1,14 449.14,14 C444.34,14 440.55,15.42 437.77,18.26 C434.99,21.1 433.4,25.04 433,30.08 L433,30.08 L441.34,30.08 C441.54,27.52 442.33,25.52 443.71,24.08 C445.09,22.64 446.9,21.92 449.14,21.92 C451.18,21.92 452.83,22.47 454.09,23.57 C455.35,24.67 455.98,26.16 455.98,28.04 C455.98,29.96 455.5,31.75 454.54,33.41 C453.58,35.07 452.1,36.92 450.1,38.96 L450.1,38.96 L433.24,56.18 L433.24,59.9 L465.16,59.9 Z M486.46,60.92 C489.5,60.92 492.23,60.26 494.65,58.94 C497.07,57.62 498.96,55.76 500.32,53.36 C501.68,50.96 502.36,48.2 502.36,45.08 C502.36,42.08 501.73,39.49 500.47,37.31 C499.21,35.13 497.51,33.48 495.37,32.36 C493.23,31.24 490.88,30.68 488.32,30.68 C486.6,30.68 485.05,30.87 483.67,31.25 C482.29,31.63 480.94,32.16 479.62,32.84 L479.62,32.84 L480.22,21.74 L499.72,21.74 L499.72,14.66 L472.54,14.66 L471.04,40.52 L478.12,40.7 C479.4,39.62 480.69,38.8 481.99,38.24 C483.29,37.68 484.7,37.4 486.22,37.4 C488.58,37.4 490.45,38.11 491.83,39.53 C493.21,40.95 493.9,42.84 493.9,45.2 C493.9,47.56 493.2,49.48 491.8,50.96 C490.4,52.44 488.56,53.18 486.28,53.18 C482.36,53.18 479.8,51.54 478.6,48.26 L478.6,48.26 L470.02,48.26 C470.94,52.34 472.82,55.47 475.66,57.65 C478.5,59.83 482.1,60.92 486.46,60.92 Z M517.076,46.576 C518.292,46.576 519.374667,46.32 520.324,45.808 C521.273333,45.296 522.014667,44.576 522.548,43.648 C523.081333,42.72 523.348,41.648 523.348,40.432 C523.348,39.2373333 523.076,38.1706667 522.532,37.232 C521.988,36.2933333 521.241333,35.5626667 520.292,35.04 C519.342667,34.5173333 518.270667,34.256 517.076,34.256 C515.902667,34.256 514.836,34.5226667 513.876,35.056 C512.916,35.5893333 512.158667,36.3253333 511.604,37.264 C511.049333,38.2026667 510.772,39.2586667 510.772,40.432 C510.772,41.6053333 511.044,42.656 511.588,43.584 C512.132,44.512 512.878667,45.2426667 513.828,45.776 C514.777333,46.3093333 515.86,46.576 517.076,46.576 Z M519.796,58.64 L534.996,34.448 L530.772,34.448 L515.604,58.64 L519.796,58.64 Z M517.076,43.312 C516.201333,43.312 515.486667,43.0506667 514.932,42.528 C514.377333,42.0053333 514.1,41.3173333 514.1,40.464 C514.1,39.6106667 514.382667,38.9013333 514.948,38.336 C515.513333,37.7706667 516.222667,37.488 517.076,37.488 C517.908,37.488 518.601333,37.7706667 519.156,38.336 C519.710667,38.9013333 519.988,39.6106667 519.988,40.464 C519.988,41.296 519.710667,41.9786667 519.156,42.512 C518.601333,43.0453333 517.908,43.312 517.076,43.312 Z M533.428,58.8 C534.622667,58.8 535.694667,58.544 536.644,58.032 C537.593333,57.52 538.34,56.8 538.884,55.872 C539.428,54.944 539.7,53.872 539.7,52.656 C539.7,51.4613333 539.428,50.3893333 538.884,49.44 C538.34,48.4906667 537.588,47.7546667 536.628,47.232 C535.668,46.7093333 534.601333,46.448 533.428,46.448 C532.233333,46.448 531.156,46.72 530.196,47.264 C529.236,47.808 528.484,48.5493333 527.94,49.488 C527.396,50.4266667 527.124,51.4826667 527.124,52.656 C527.124,53.808 527.396,54.8533333 527.94,55.792 C528.484,56.7306667 529.230667,57.4666667 530.18,58 C531.129333,58.5333333 532.212,58.8 533.428,58.8 Z M533.428,55.536 C532.553333,55.536 531.838667,55.2746667 531.284,54.752 C530.729333,54.2293333 530.452,53.5413333 530.452,52.688 C530.452,51.8346667 530.734667,51.1253333 531.3,50.56 C531.865333,49.9946667 532.574667,49.712 533.428,49.712 C534.26,49.712 534.948,49.9893333 535.492,50.544 C536.036,51.0986667 536.308,51.8133333 536.308,52.688 C536.308,53.52 536.036,54.2026667 535.492,54.736 C534.948,55.2693333 534.26,55.536 533.428,55.536 Z" id="25%" fill="#FFFFFF" fill-rule="nonzero"></path>
                        <rect id="矩形" x="433" y="0" width="144" height="75"></rect>
                    </g>
                </g>
            </g>
        </g>
    </g>
</svg>