<?xml version="1.0" encoding="UTF-8"?>
<svg width="144px" height="75px" viewBox="0 0 144 75" version="1.1" xmlns="http://www.w3.org/2000/svg" xmlns:xlink="http://www.w3.org/1999/xlink">
    <title>矩形</title>
    <g id="页面-1" stroke="none" stroke-width="1" fill="none" fill-rule="evenodd">
        <g id="1920" transform="translate(-890.000000, -20991.000000)">
            <g id="deep-hd" transform="translate(0.000000, 19439.000000)">
                <g id="deep-hd超清-2" transform="translate(0.000000, 1080.000000)">
                    <g id="编组-14" transform="translate(669.000000, 472.000000)">
                        <g id="编组-61" transform="translate(220.000000, 8.000000)"></g>
                        <rect id="矩形" x="221" y="0" width="144" height="75"></rect>
                        <path d="M237.44,60.92 C240.48,60.92 243.21,60.26 245.63,58.94 C248.05,57.62 249.94,55.76 251.3,53.36 C252.66,50.96 253.34,48.2 253.34,45.08 C253.34,42.08 252.71,39.49 251.45,37.31 C250.19,35.13 248.49,33.48 246.35,32.36 C244.21,31.24 241.86,30.68 239.3,30.68 C237.58,30.68 236.03,30.87 234.65,31.25 C233.27,31.63 231.92,32.16 230.6,32.84 L230.6,32.84 L231.2,21.74 L250.7,21.74 L250.7,14.66 L223.52,14.66 L222.02,40.52 L229.1,40.7 C230.38,39.62 231.67,38.8 232.97,38.24 C234.27,37.68 235.68,37.4 237.2,37.4 C239.56,37.4 241.43,38.11 242.81,39.53 C244.19,40.95 244.88,42.84 244.88,45.2 C244.88,47.56 244.18,49.48 242.78,50.96 C241.38,52.44 239.54,53.18 237.26,53.18 C233.34,53.18 230.78,51.54 229.58,48.26 L229.58,48.26 L221,48.26 C221.92,52.34 223.8,55.47 226.64,57.65 C229.48,59.83 233.08,60.92 237.44,60.92 Z M274.64,60.86 C279.6,60.86 283.53,59.39 286.43,56.45 C289.33,53.51 290.78,49.3 290.78,43.82 L290.78,43.82 L290.78,32.06 C290.78,28.34 290.11,25.12 288.77,22.4 C287.43,19.68 285.55,17.6 283.13,16.16 C280.71,14.72 277.88,14 274.64,14 C271.48,14 268.69,14.72 266.27,16.16 C263.85,17.6 261.98,19.68 260.66,22.4 C259.34,25.12 258.68,28.34 258.68,32.06 L258.68,32.06 L258.68,43.82 C258.68,49.3 260.12,53.51 263,56.45 C265.88,59.39 269.76,60.86 274.64,60.86 Z M274.64,52.76 C272.08,52.76 270.17,51.88 268.91,50.12 C267.65,48.36 267.02,46.06 267.02,43.22 L267.02,43.22 L267.02,31.7 C267.02,28.74 267.71,26.42 269.09,24.74 C270.47,23.06 272.32,22.22 274.64,22.22 C277.2,22.22 279.12,23.09 280.4,24.83 C281.68,26.57 282.32,28.86 282.32,31.7 L282.32,31.7 L282.32,43.22 C282.32,46.1 281.69,48.41 280.43,50.15 C279.17,51.89 277.24,52.76 274.64,52.76 Z M305.676,46.576 C306.892,46.576 307.974667,46.32 308.924,45.808 C309.873333,45.296 310.614667,44.576 311.148,43.648 C311.681333,42.72 311.948,41.648 311.948,40.432 C311.948,39.2373333 311.676,38.1706667 311.132,37.232 C310.588,36.2933333 309.841333,35.5626667 308.892,35.04 C307.942667,34.5173333 306.870667,34.256 305.676,34.256 C304.502667,34.256 303.436,34.5226667 302.476,35.056 C301.516,35.5893333 300.758667,36.3253333 300.204,37.264 C299.649333,38.2026667 299.372,39.2586667 299.372,40.432 C299.372,41.6053333 299.644,42.656 300.188,43.584 C300.732,44.512 301.478667,45.2426667 302.428,45.776 C303.377333,46.3093333 304.46,46.576 305.676,46.576 Z M308.396,58.64 L323.596,34.448 L319.372,34.448 L304.204,58.64 L308.396,58.64 Z M305.676,43.312 C304.801333,43.312 304.086667,43.0506667 303.532,42.528 C302.977333,42.0053333 302.7,41.3173333 302.7,40.464 C302.7,39.6106667 302.982667,38.9013333 303.548,38.336 C304.113333,37.7706667 304.822667,37.488 305.676,37.488 C306.508,37.488 307.201333,37.7706667 307.756,38.336 C308.310667,38.9013333 308.588,39.6106667 308.588,40.464 C308.588,41.296 308.310667,41.9786667 307.756,42.512 C307.201333,43.0453333 306.508,43.312 305.676,43.312 Z M322.028,58.8 C323.222667,58.8 324.294667,58.544 325.244,58.032 C326.193333,57.52 326.94,56.8 327.484,55.872 C328.028,54.944 328.3,53.872 328.3,52.656 C328.3,51.4613333 328.028,50.3893333 327.484,49.44 C326.94,48.4906667 326.188,47.7546667 325.228,47.232 C324.268,46.7093333 323.201333,46.448 322.028,46.448 C320.833333,46.448 319.756,46.72 318.796,47.264 C317.836,47.808 317.084,48.5493333 316.54,49.488 C315.996,50.4266667 315.724,51.4826667 315.724,52.656 C315.724,53.808 315.996,54.8533333 316.54,55.792 C317.084,56.7306667 317.830667,57.4666667 318.78,58 C319.729333,58.5333333 320.812,58.8 322.028,58.8 Z M322.028,55.536 C321.153333,55.536 320.438667,55.2746667 319.884,54.752 C319.329333,54.2293333 319.052,53.5413333 319.052,52.688 C319.052,51.8346667 319.334667,51.1253333 319.9,50.56 C320.465333,49.9946667 321.174667,49.712 322.028,49.712 C322.86,49.712 323.548,49.9893333 324.092,50.544 C324.636,51.0986667 324.908,51.8133333 324.908,52.688 C324.908,53.52 324.636,54.2026667 324.092,54.736 C323.548,55.2693333 322.86,55.536 322.028,55.536 Z" id="50%" fill="#FFFFFF" fill-rule="nonzero"></path>
                    </g>
                </g>
            </g>
        </g>
    </g>
</svg>