<?xml version="1.0" encoding="UTF-8"?>
<svg width="144px" height="50px" viewBox="0 0 144 50" version="1.1" xmlns="http://www.w3.org/2000/svg" xmlns:xlink="http://www.w3.org/1999/xlink">
    <title>矩形</title>
    <g id="页面-1" stroke="none" stroke-width="1" fill="none" fill-rule="evenodd">
        <g id="2560" transform="translate(-1199.000000, -24824.000000)">
            <g id="编组-14" transform="translate(978.000000, 24811.000000)">
                <g id="编组-61" transform="translate(220.000000, 8.000000)"></g>
                <rect id="矩形" x="221" y="0" width="144" height="75"></rect>
                <path d="M255.44,61.92 C258.48,61.92 261.21,61.26 263.63,59.94 C266.05,58.62 267.94,56.76 269.3,54.36 C270.66,51.96 271.34,49.2 271.34,46.08 C271.34,43.08 270.71,40.49 269.45,38.31 C268.19,36.13 266.49,34.48 264.35,33.36 C262.21,32.24 259.86,31.68 257.3,31.68 C255.58,31.68 254.03,31.87 252.65,32.25 C251.27,32.63 249.92,33.16 248.6,33.84 L248.6,33.84 L249.2,22.74 L268.7,22.74 L268.7,15.66 L241.52,15.66 L240.02,41.52 L247.1,41.7 C248.38,40.62 249.67,39.8 250.97,39.24 C252.27,38.68 253.68,38.4 255.2,38.4 C257.56,38.4 259.43,39.11 260.81,40.53 C262.19,41.95 262.88,43.84 262.88,46.2 C262.88,48.56 262.18,50.48 260.78,51.96 C259.38,53.44 257.54,54.18 255.26,54.18 C251.34,54.18 248.78,52.54 247.58,49.26 L247.58,49.26 L239,49.26 C239.92,53.34 241.8,56.47 244.64,58.65 C247.48,60.83 251.08,61.92 255.44,61.92 Z M292.64,61.86 C297.6,61.86 301.53,60.39 304.43,57.45 C307.33,54.51 308.78,50.3 308.78,44.82 L308.78,44.82 L308.78,33.06 C308.78,29.34 308.11,26.12 306.77,23.4 C305.43,20.68 303.55,18.6 301.13,17.16 C298.71,15.72 295.88,15 292.64,15 C289.48,15 286.69,15.72 284.27,17.16 C281.85,18.6 279.98,20.68 278.66,23.4 C277.34,26.12 276.68,29.34 276.68,33.06 L276.68,33.06 L276.68,44.82 C276.68,50.3 278.12,54.51 281,57.45 C283.88,60.39 287.76,61.86 292.64,61.86 Z M292.64,53.76 C290.08,53.76 288.17,52.88 286.91,51.12 C285.65,49.36 285.02,47.06 285.02,44.22 L285.02,44.22 L285.02,32.7 C285.02,29.74 285.71,27.42 287.09,25.74 C288.47,24.06 290.32,23.22 292.64,23.22 C295.2,23.22 297.12,24.09 298.4,25.83 C299.68,27.57 300.32,29.86 300.32,32.7 L300.32,32.7 L300.32,44.22 C300.32,47.1 299.69,49.41 298.43,51.15 C297.17,52.89 295.24,53.76 292.64,53.76 Z M323.676,47.576 C324.892,47.576 325.974667,47.32 326.924,46.808 C327.873333,46.296 328.614667,45.576 329.148,44.648 C329.681333,43.72 329.948,42.648 329.948,41.432 C329.948,40.2373333 329.676,39.1706667 329.132,38.232 C328.588,37.2933333 327.841333,36.5626667 326.892,36.04 C325.942667,35.5173333 324.870667,35.256 323.676,35.256 C322.502667,35.256 321.436,35.5226667 320.476,36.056 C319.516,36.5893333 318.758667,37.3253333 318.204,38.264 C317.649333,39.2026667 317.372,40.2586667 317.372,41.432 C317.372,42.6053333 317.644,43.656 318.188,44.584 C318.732,45.512 319.478667,46.2426667 320.428,46.776 C321.377333,47.3093333 322.46,47.576 323.676,47.576 Z M326.396,59.64 L341.596,35.448 L337.372,35.448 L322.204,59.64 L326.396,59.64 Z M323.676,44.312 C322.801333,44.312 322.086667,44.0506667 321.532,43.528 C320.977333,43.0053333 320.7,42.3173333 320.7,41.464 C320.7,40.6106667 320.982667,39.9013333 321.548,39.336 C322.113333,38.7706667 322.822667,38.488 323.676,38.488 C324.508,38.488 325.201333,38.7706667 325.756,39.336 C326.310667,39.9013333 326.588,40.6106667 326.588,41.464 C326.588,42.296 326.310667,42.9786667 325.756,43.512 C325.201333,44.0453333 324.508,44.312 323.676,44.312 Z M340.028,59.8 C341.222667,59.8 342.294667,59.544 343.244,59.032 C344.193333,58.52 344.94,57.8 345.484,56.872 C346.028,55.944 346.3,54.872 346.3,53.656 C346.3,52.4613333 346.028,51.3893333 345.484,50.44 C344.94,49.4906667 344.188,48.7546667 343.228,48.232 C342.268,47.7093333 341.201333,47.448 340.028,47.448 C338.833333,47.448 337.756,47.72 336.796,48.264 C335.836,48.808 335.084,49.5493333 334.54,50.488 C333.996,51.4266667 333.724,52.4826667 333.724,53.656 C333.724,54.808 333.996,55.8533333 334.54,56.792 C335.084,57.7306667 335.830667,58.4666667 336.78,59 C337.729333,59.5333333 338.812,59.8 340.028,59.8 Z M340.028,56.536 C339.153333,56.536 338.438667,56.2746667 337.884,55.752 C337.329333,55.2293333 337.052,54.5413333 337.052,53.688 C337.052,52.8346667 337.334667,52.1253333 337.9,51.56 C338.465333,50.9946667 339.174667,50.712 340.028,50.712 C340.86,50.712 341.548,50.9893333 342.092,51.544 C342.636,52.0986667 342.908,52.8133333 342.908,53.688 C342.908,54.52 342.636,55.2026667 342.092,55.736 C341.548,56.2693333 340.86,56.536 340.028,56.536 Z" id="50%" fill="#FFFFFF" fill-rule="nonzero"></path>
            </g>
        </g>
    </g>
</svg>